<mxfile host="65bd71144e">
    <diagram id="LX7KB6QrQUtvVzWHfLix" name="Page-1">
        <mxGraphModel dx="2135" dy="877" grid="1" gridSize="10" guides="1" tooltips="1" connect="1" arrows="1" fold="1" page="1" pageScale="1" pageWidth="827" pageHeight="1169" math="0" shadow="0">
            <root>
                <mxCell id="0"/>
                <mxCell id="1" parent="0"/>
                <mxCell id="12" style="edgeStyle=none;html=1;entryX=0;entryY=0.5;entryDx=0;entryDy=0;" parent="1" source="2" edge="1">
                    <mxGeometry relative="1" as="geometry">
                        <mxPoint x="250" y="260" as="targetPoint"/>
                    </mxGeometry>
                </mxCell>
                <mxCell id="2" value="Url?user_id=" style="rounded=1;whiteSpace=wrap;html=1;" parent="1" vertex="1">
                    <mxGeometry x="30" y="230" width="120" height="60" as="geometry"/>
                </mxCell>
                <mxCell id="16" style="edgeStyle=none;html=1;entryX=0.5;entryY=1;entryDx=0;entryDy=0;" parent="1" source="4" target="14" edge="1">
                    <mxGeometry relative="1" as="geometry">
                        <Array as="points">
                            <mxPoint x="740" y="390"/>
                        </Array>
                    </mxGeometry>
                </mxCell>
                <mxCell id="4" value="create a empty one" style="rounded=1;whiteSpace=wrap;html=1;" parent="1" vertex="1">
                    <mxGeometry x="450" y="360" width="120" height="60" as="geometry"/>
                </mxCell>
                <mxCell id="6" style="edgeStyle=none;html=1;entryX=0.01;entryY=0.677;entryDx=0;entryDy=0;entryPerimeter=0;" parent="1" target="4" edge="1">
                    <mxGeometry relative="1" as="geometry">
                        <Array as="points">
                            <mxPoint x="320" y="400"/>
                        </Array>
                        <mxPoint x="320" y="310" as="sourcePoint"/>
                    </mxGeometry>
                </mxCell>
                <mxCell id="7" value="No" style="text;html=1;strokeColor=none;fillColor=none;align=center;verticalAlign=middle;whiteSpace=wrap;rounded=0;" parent="1" vertex="1">
                    <mxGeometry x="250" y="340" width="60" height="30" as="geometry"/>
                </mxCell>
                <mxCell id="8" value="Yes" style="text;html=1;strokeColor=none;fillColor=none;align=center;verticalAlign=middle;whiteSpace=wrap;rounded=0;" parent="1" vertex="1">
                    <mxGeometry x="384" y="210" width="60" height="30" as="geometry"/>
                </mxCell>
                <mxCell id="9" value="&lt;font size=&quot;1&quot;&gt;read the notes in local stoage/ tour status?&lt;/font&gt;" style="rounded=1;whiteSpace=wrap;html=1;" parent="1" vertex="1">
                    <mxGeometry x="470" y="230" width="120" height="60" as="geometry"/>
                </mxCell>
                <mxCell id="13" value="User get&amp;nbsp; the research website" style="text;html=1;strokeColor=none;fillColor=none;align=center;verticalAlign=middle;whiteSpace=wrap;rounded=0;" parent="1" vertex="1">
                    <mxGeometry x="40" y="190" width="100" height="30" as="geometry"/>
                </mxCell>
                <mxCell id="14" value="call backend_api to get initial message" style="rounded=1;whiteSpace=wrap;html=1;" parent="1" vertex="1">
                    <mxGeometry x="680" y="230" width="120" height="60" as="geometry"/>
                </mxCell>
                <mxCell id="15" style="edgeStyle=none;html=1;entryX=0;entryY=0.5;entryDx=0;entryDy=0;" parent="1" target="14" edge="1">
                    <mxGeometry relative="1" as="geometry">
                        <mxPoint x="590" y="259.7000000000001" as="sourcePoint"/>
                        <mxPoint x="670.0000000000002" y="259.7000000000001" as="targetPoint"/>
                    </mxGeometry>
                </mxCell>
                <mxCell id="18" value="Url" style="rounded=1;whiteSpace=wrap;html=1;" parent="1" vertex="1">
                    <mxGeometry x="30" y="460" width="120" height="60" as="geometry"/>
                </mxCell>
                <mxCell id="19" value="User get&amp;nbsp; the research website &lt;span style=&quot;background-color: rgb(230, 255, 204);&quot;&gt;&lt;font color=&quot;#0d0d0d&quot;&gt;without parameter&lt;/font&gt;&lt;/span&gt;" style="text;html=1;strokeColor=none;fillColor=none;align=center;verticalAlign=middle;whiteSpace=wrap;rounded=0;" parent="1" vertex="1">
                    <mxGeometry x="20.5" y="410" width="159" height="30" as="geometry"/>
                </mxCell>
                <mxCell id="20" style="edgeStyle=none;html=1;entryX=0;entryY=0.5;entryDx=0;entryDy=0;" parent="1" edge="1">
                    <mxGeometry relative="1" as="geometry">
                        <mxPoint x="150" y="489.57" as="sourcePoint"/>
                        <mxPoint x="250" y="489.57" as="targetPoint"/>
                    </mxGeometry>
                </mxCell>
                <mxCell id="21" value="Not allow to this website" style="rounded=1;whiteSpace=wrap;html=1;" parent="1" vertex="1">
                    <mxGeometry x="250" y="460" width="120" height="60" as="geometry"/>
                </mxCell>
                <mxCell id="22" value="&lt;span style=&quot;font-size: x-small;&quot;&gt;whether the user_id has local storage?&lt;/span&gt;" style="rhombus;whiteSpace=wrap;html=1;" vertex="1" parent="1">
                    <mxGeometry x="250" y="220" width="130" height="80" as="geometry"/>
                </mxCell>
                <mxCell id="23" style="edgeStyle=none;html=1;entryX=0;entryY=0.5;entryDx=0;entryDy=0;" edge="1" parent="1">
                    <mxGeometry relative="1" as="geometry">
                        <mxPoint x="380" y="259.63000000000005" as="sourcePoint"/>
                        <mxPoint x="470" y="259.93" as="targetPoint"/>
                    </mxGeometry>
                </mxCell>
            </root>
        </mxGraphModel>
    </diagram>
</mxfile>
